[img]http://img412.imageshack.us/img412/8774/43577777.jpg[/img]
 
http://www.imdb.com/title/tt1055363/

Source: Rage 2 The Dead Matter (2010) DL1080pBluRayx264-RSG

Subs: Dutch.

Sample and Screens included.

General
Complete name                    : The Dead Matter 2010-MP4 AAC BRRip-CC.mp4
Format                           : MPEG-4
Format profile                   : Base Media
Codec ID                         : isom
File size                        : 1.45 GiB
Duration                         : 1h 27mn
Overall bit rate                 : 2 379 Kbps
Encoded date                     : UTC 2011-11-09 06:33:48
Tagged date                      : UTC 2011-11-09 06:33:48
Writing application              : Yamb 2.1.0.0 

Video
ID                               : 1
Format                           : AVC
Format/Info                      : Advanced Video Codec
Format profile                   : Main@L3.0
Format settings, CABAC           : Yes
Format settings, ReFrames        : 1 frame
Codec ID                         : avc1
Codec ID/Info                    : Advanced Video Coding
Duration                         : 1h 27mn
Bit rate mode                    : Variable
Bit rate                         : 1 993 Kbps
Nominal bit rate                 : 2 007 Kbps
Maximum bit rate                 : 13.1 Mbps
Width                            : 720 pixels
Height                           : 400 pixels
Display aspect ratio             : 16:9
Frame rate mode                  : Variable
Frame rate                       : 23.976 fps
Minimum frame rate               : 23.976 fps
Maximum frame rate               : 23.988 fps
Resolution                       : 8 bits
Colorimetry                      : 4:2:0
Scan type                        : Progressive
Bits/(Pixel*Frame)               : 0.289
Stream size                      : 1.21 GiB (84%)
Writing library                  : x264 core 65
Encoding settings                : cabac=1 / ref=1 / deblock=1:0:0 / analyse=0x1:0x111 / me=hex / subme=6 / psy_rd=1.0:0.0 / mixed_ref=0 / me_range=16 / chroma_me=1 / trellis=0 / 8x8dct=0 / cqm=0 / deadzone=21,11 / chroma_qp_offset=-2 / threads=3 / nr=0 / decimate=1 / mbaff=0 / bframes=0 / keyint=240 / keyint_min=24 / scenecut=40(pre) / rc=abr / bitrate=2007 / ratetol=1.0 / qcomp=0.60 / qpmin=10 / qpmax=51 / qpstep=4 / ip_ratio=1.40 / aq=1:1.00
Encoded date                     : UTC 2011-11-09 22:53:49
Tagged date                      : UTC 2011-11-09 06:35:19
Color primaries                  : BT.601-6 525, BT.1358 525, BT.1700 NTSC, SMPTE 170M
Transfer characteristics         : BT.709-5, BT.1361
Matrix coefficients              : BT.601-6 525, BT.1358 525, BT.1700 NTSC, SMPTE 170M

Audio
ID                               : 2
Format                           : AAC
Format/Info                      : Advanced Audio Codec
Format version                   : Version 4
Format profile                   : LC
Format settings, SBR             : No
Codec ID                         : 40
Duration                         : 1h 27mn
Bit rate mode                    : Variable
Bit rate                         : 384 Kbps
Maximum bit rate                 : 528 Kbps
Channel(s)                       : 6 channels
Channel positions                : Front: L C R, Rear: L R, LFE
Sampling rate                    : 48.0 KHz
Stream size                      : 239 MiB (16%)
Language                         : English
Encoded date                     : UTC 2011-11-09 06:34:54
Tagged date                      : UTC 2011-11-09 06:35:19

[img]http://img208.imageshack.us/img208/7859/thedeadmatter2010mp4aac.jpg[/img]